<svg xmlns="http://www.w3.org/2000/svg" xmlns:xlink="http://www.w3.org/1999/xlink" width="572" zoomAndPan="magnify" viewBox="0 0 428.88 308.999992" height="412" preserveAspectRatio="xMidYMid meet" version="1.0"><defs><g/><clipPath id="9e78f72a0e"><path d="M 0 0.0429688 L 428.761719 0.0429688 L 428.761719 308.957031 L 0 308.957031 Z M 0 0.0429688 " clip-rule="nonzero"/></clipPath><clipPath id="d436a6ad89"><path d="M 146.265625 107 L 215 107 L 215 167 L 146.265625 167 Z M 146.265625 107 " clip-rule="nonzero"/></clipPath><clipPath id="d85a2f31f0"><path d="M 214 75.542969 L 282.730469 75.542969 L 282.730469 136 L 214 136 Z M 214 75.542969 " clip-rule="nonzero"/></clipPath></defs><g clip-path="url(#9e78f72a0e)"><path fill="#ffffff" d="M 0 0.0429688 L 428.878906 0.0429688 L 428.878906 316.453125 L 0 316.453125 Z M 0 0.0429688 " fill-opacity="1" fill-rule="nonzero"/><path fill="#ffffff" d="M 0 0.0429688 L 428.878906 0.0429688 L 428.878906 308.957031 L 0 308.957031 Z M 0 0.0429688 " fill-opacity="1" fill-rule="nonzero"/></g><g clip-path="url(#d436a6ad89)"><path fill="#0652e9" d="M 192.21875 149.496094 L 192.21875 157.773438 L 154.601562 140.355469 L 154.601562 133.636719 L 192.21875 116.214844 L 192.21875 124.496094 L 163.769531 136.917969 L 163.769531 137.074219 Z M 214.554688 107.015625 L 151.652344 107.015625 C 148.679688 107.015625 146.273438 109.414062 146.273438 112.375 L 146.273438 161.617188 C 146.273438 164.574219 148.679688 166.976562 151.652344 166.976562 L 197.09375 166.976562 L 214.554688 107.015625 " fill-opacity="1" fill-rule="nonzero"/></g><g clip-path="url(#d85a2f31f0)"><path fill="#38b6ff" d="M 274.410156 109.144531 L 236.796875 126.332031 L 236.796875 118.046875 L 265.871094 105.628906 L 265.871094 105.472656 L 236.796875 93.050781 L 236.796875 84.769531 L 274.410156 101.957031 Z M 232.019531 75.570312 L 214.554688 135.53125 L 277.363281 135.53125 C 280.332031 135.53125 282.738281 133.132812 282.738281 130.167969 L 282.738281 80.929688 C 282.738281 77.96875 280.332031 75.570312 277.363281 75.570312 L 232.019531 75.570312 " fill-opacity="1" fill-rule="nonzero"/></g><g fill="#000000" fill-opacity="1"><g transform="translate(122.812855, 203.771075)"><g><path d="M 14.90625 0 L 19.835938 0 L 12.28125 -20.992188 L 7.101562 -20.992188 L -0.453125 0 L 4.476562 0 L 5.773438 -3.953125 L 13.609375 -3.953125 Z M 6.996094 -7.800781 L 9.691406 -16.128906 L 12.386719 -7.800781 Z M 6.996094 -7.800781 "/></g></g></g><g fill="#000000" fill-opacity="1"><g transform="translate(143.426409, 203.771075)"><g><path d="M 6.683594 -4.09375 L 6.683594 -20.992188 L 2.0625 -20.992188 L 2.0625 0 L 13.644531 0 L 13.644531 -4.09375 Z M 6.683594 -4.09375 "/></g></g></g><g fill="#000000" fill-opacity="1"><g transform="translate(158.372329, 203.771075)"><g><path d="M 12.070312 -11.511719 L 12.070312 -7.90625 L 17.84375 -7.90625 C 16.863281 -5.703125 14.695312 -4.234375 12.105469 -4.234375 C 8.570312 -4.234375 5.84375 -6.960938 5.84375 -10.496094 C 5.84375 -14.03125 8.570312 -16.757812 12.105469 -16.757812 C 14.589844 -16.757812 16.617188 -15.429688 17.667969 -13.433594 L 21.65625 -15.5 C 19.835938 -18.929688 16.234375 -21.273438 12.105469 -21.273438 C 6.121094 -21.273438 1.328125 -16.445312 1.328125 -10.496094 C 1.328125 -4.546875 6.121094 0.28125 12.105469 0.28125 C 18.054688 0.28125 22.882812 -4.546875 22.882812 -10.496094 L 22.882812 -11.511719 Z M 12.070312 -11.511719 "/></g></g></g><g fill="#000000" fill-opacity="1"><g transform="translate(183.813857, 203.771075)"><g><path d="M 12.070312 0.28125 C 18.054688 0.28125 22.847656 -4.546875 22.847656 -10.496094 C 22.847656 -16.445312 18.054688 -21.273438 12.070312 -21.273438 C 6.121094 -21.273438 1.292969 -16.445312 1.292969 -10.496094 C 1.292969 -4.546875 6.121094 0.28125 12.070312 0.28125 Z M 12.070312 -4.234375 C 8.535156 -4.234375 5.84375 -6.960938 5.84375 -10.496094 C 5.84375 -14.03125 8.535156 -16.757812 12.070312 -16.757812 C 15.640625 -16.757812 18.332031 -14.03125 18.332031 -10.496094 C 18.332031 -6.960938 15.640625 -4.234375 12.070312 -4.234375 Z M 12.070312 -4.234375 "/></g></g></g><g fill="#000000" fill-opacity="1"><g transform="translate(209.220396, 203.771075)"><g><path d="M 13.015625 -8.640625 C 15.5 -9.375 17.25 -11.6875 17.25 -14.554688 C 17.25 -18.125 14.589844 -20.992188 10.984375 -20.992188 L 2.0625 -20.992188 L 2.0625 0 L 6.683594 0 L 6.683594 -8.117188 L 8.535156 -8.117188 L 13.714844 0 L 18.894531 0 Z M 10.285156 -11.929688 L 6.683594 -11.929688 L 6.683594 -16.898438 L 10.285156 -16.898438 C 11.753906 -16.898438 12.839844 -15.847656 12.839844 -14.414062 C 12.839844 -12.945312 11.753906 -11.929688 10.285156 -11.929688 Z M 10.285156 -11.929688 "/></g></g></g><g fill="#000000" fill-opacity="1"><g transform="translate(229.169224, 203.771075)"><g><path d="M 2.238281 0 L 6.859375 0 L 6.859375 -20.992188 L 2.238281 -20.992188 Z M 2.238281 0 "/></g></g></g><g fill="#000000" fill-opacity="1"><g transform="translate(239.462101, 203.771075)"><g><path d="M 15.007812 -20.992188 L -0.175781 -20.992188 L -0.175781 -16.898438 L 5.144531 -16.898438 L 5.144531 0 L 9.726562 0 L 9.726562 -16.898438 L 15.007812 -16.898438 Z M 15.007812 -20.992188 "/></g></g></g><g fill="#000000" fill-opacity="1"><g transform="translate(255.527559, 203.771075)"><g><path d="M 15.21875 -20.992188 L 15.21875 -12.558594 L 6.683594 -12.558594 L 6.683594 -20.992188 L 2.0625 -20.992188 L 2.0625 0 L 6.683594 0 L 6.683594 -8.46875 L 15.21875 -8.46875 L 15.21875 0 L 19.800781 0 L 19.800781 -20.992188 Z M 15.21875 -20.992188 "/></g></g></g><g fill="#000000" fill-opacity="1"><g transform="translate(278.660055, 203.771075)"><g><path d="M 20.363281 -20.992188 L 13.679688 -6.472656 L 7.066406 -20.992188 L 2.0625 -20.992188 L 2.0625 0 L 6.683594 0 L 6.683594 -12.523438 L 12.351562 0 L 15.007812 0 L 20.710938 -12.492188 L 20.710938 0 L 25.332031 0 L 25.332031 -20.992188 Z M 20.363281 -20.992188 "/></g></g></g><g fill="#000000" fill-opacity="1"><g transform="translate(145.023933, 230.157729)"><g><path d="M 5.351562 0.121094 C 7.078125 0.121094 8.578125 -0.824219 9.371094 -2.21875 L 8.546875 -2.683594 C 7.933594 -1.574219 6.734375 -0.839844 5.351562 -0.839844 C 3.328125 -0.839844 1.695312 -2.460938 1.695312 -4.5 C 1.695312 -6.539062 3.328125 -8.15625 5.351562 -8.15625 C 6.734375 -8.15625 7.933594 -7.421875 8.546875 -6.3125 L 9.371094 -6.777344 C 8.578125 -8.171875 7.078125 -9.117188 5.351562 -9.117188 C 2.804688 -9.117188 0.734375 -7.046875 0.734375 -4.5 C 0.734375 -1.949219 2.804688 0.121094 5.351562 0.121094 Z M 5.351562 0.121094 "/></g></g></g><g fill="#000000" fill-opacity="1"><g transform="translate(158.910113, 230.157729)"><g><path d="M 5.351562 0.121094 C 7.917969 0.121094 9.972656 -1.949219 9.972656 -4.5 C 9.972656 -7.046875 7.917969 -9.117188 5.351562 -9.117188 C 2.804688 -9.117188 0.734375 -7.046875 0.734375 -4.5 C 0.734375 -1.949219 2.804688 0.121094 5.351562 0.121094 Z M 5.351562 -0.839844 C 3.328125 -0.839844 1.695312 -2.460938 1.695312 -4.5 C 1.695312 -6.539062 3.328125 -8.15625 5.351562 -8.15625 C 7.394531 -8.15625 9.011719 -6.539062 9.011719 -4.5 C 9.011719 -2.460938 7.394531 -0.839844 5.351562 -0.839844 Z M 5.351562 -0.839844 "/></g></g></g><g fill="#000000" fill-opacity="1"><g transform="translate(173.651054, 230.157729)"><g><path d="M 1.09375 0 L 3.554688 0 C 6.027344 0 8.054688 -2.007812 8.054688 -4.5 C 8.054688 -6.988281 6.027344 -8.996094 3.554688 -8.996094 L 1.09375 -8.996094 Z M 2.039062 -0.960938 L 2.039062 -8.039062 L 3.539062 -8.039062 C 5.535156 -8.039062 7.09375 -6.523438 7.09375 -4.5 C 7.09375 -2.472656 5.535156 -0.960938 3.539062 -0.960938 Z M 2.039062 -0.960938 "/></g></g></g><g fill="#000000" fill-opacity="1"><g transform="translate(186.457535, 230.157729)"><g><path d="M 6.089844 -8.066406 L 6.089844 -8.996094 L 1.167969 -8.996094 L 1.167969 0 L 6.089844 0 L 6.089844 -0.929688 L 2.128906 -0.929688 L 2.128906 -4.035156 L 5.578125 -4.035156 L 5.578125 -4.964844 L 2.128906 -4.964844 L 2.128906 -8.066406 Z M 6.089844 -8.066406 "/></g></g></g><g fill="#000000" fill-opacity="1"><g transform="translate(197.464524, 230.157729)"><g><path d="M 1.425781 0.121094 C 1.875 0.121094 2.25 -0.253906 2.25 -0.703125 C 2.25 -1.15625 1.875 -1.53125 1.425781 -1.53125 C 0.988281 -1.53125 0.601562 -1.15625 0.601562 -0.703125 C 0.601562 -0.253906 0.988281 0.121094 1.425781 0.121094 Z M 1.425781 0.121094 "/></g></g></g><g fill="#000000" fill-opacity="1"><g transform="translate(204.347666, 230.157729)"><g/></g></g><g fill="#000000" fill-opacity="1"><g transform="translate(211.980599, 230.157729)"><g><path d="M 3.359375 0.121094 C 4.886719 0.121094 6.132812 -0.792969 6.132812 -2.371094 C 6.132812 -5.429688 1.753906 -4.679688 1.753906 -6.824219 C 1.753906 -7.722656 2.488281 -8.15625 3.328125 -8.15625 C 4.019531 -8.15625 4.589844 -7.871094 4.949219 -7.363281 L 5.699219 -7.992188 C 5.203125 -8.621094 4.332031 -9.117188 3.300781 -9.117188 C 1.917969 -9.117188 0.792969 -8.21875 0.792969 -6.75 C 0.792969 -3.855469 5.171875 -4.574219 5.171875 -2.339844 C 5.171875 -1.378906 4.378906 -0.839844 3.375 -0.839844 C 2.355469 -0.839844 1.621094 -1.394531 1.304688 -2.21875 L 0.433594 -1.710938 C 0.898438 -0.601562 2.023438 0.121094 3.359375 0.121094 Z M 3.359375 0.121094 "/></g></g></g><g fill="#000000" fill-opacity="1"><g transform="translate(222.567707, 230.157729)"><g><path d="M 6.089844 -8.066406 L 6.089844 -8.996094 L 1.167969 -8.996094 L 1.167969 0 L 6.089844 0 L 6.089844 -0.929688 L 2.128906 -0.929688 L 2.128906 -4.035156 L 5.578125 -4.035156 L 5.578125 -4.964844 L 2.128906 -4.964844 L 2.128906 -8.066406 Z M 6.089844 -8.066406 "/></g></g></g><g fill="#000000" fill-opacity="1"><g transform="translate(233.574696, 230.157729)"><g><path d="M 6.074219 -8.996094 L 0.136719 -8.996094 L 0.136719 -8.039062 L 2.625 -8.039062 L 2.625 0 L 3.585938 0 L 3.585938 -8.039062 L 6.074219 -8.039062 Z M 6.074219 -8.996094 "/></g></g></g><g fill="#000000" fill-opacity="1"><g transform="translate(243.801902, 230.157729)"><g><path d="M 1.425781 0.121094 C 1.875 0.121094 2.25 -0.253906 2.25 -0.703125 C 2.25 -1.15625 1.875 -1.53125 1.425781 -1.53125 C 0.988281 -1.53125 0.601562 -1.15625 0.601562 -0.703125 C 0.601562 -0.253906 0.988281 0.121094 1.425781 0.121094 Z M 1.425781 0.121094 "/></g></g></g><g fill="#000000" fill-opacity="1"><g transform="translate(250.685039, 230.157729)"><g/></g></g><g fill="#000000" fill-opacity="1"><g transform="translate(258.317966, 230.157729)"><g><path d="M 5.382812 -4.769531 L 5.382812 -3.867188 L 8.996094 -3.867188 C 8.710938 -2.128906 7.214844 -0.839844 5.398438 -0.839844 C 3.375 -0.839844 1.738281 -2.460938 1.738281 -4.5 C 1.738281 -6.539062 3.375 -8.15625 5.398438 -8.15625 C 6.761719 -8.15625 7.960938 -7.421875 8.578125 -6.3125 L 9.402344 -6.777344 C 8.621094 -8.171875 7.121094 -9.117188 5.398438 -9.117188 C 2.835938 -9.117188 0.78125 -7.046875 0.78125 -4.5 C 0.78125 -1.949219 2.835938 0.121094 5.398438 0.121094 C 7.949219 0.121094 10.015625 -1.949219 10.015625 -4.5 L 10.015625 -4.769531 Z M 5.382812 -4.769531 "/></g></g></g><g fill="#000000" fill-opacity="1"><g transform="translate(273.118886, 230.157729)"><g><path d="M 5.351562 0.121094 C 7.917969 0.121094 9.972656 -1.949219 9.972656 -4.5 C 9.972656 -7.046875 7.917969 -9.117188 5.351562 -9.117188 C 2.804688 -9.117188 0.734375 -7.046875 0.734375 -4.5 C 0.734375 -1.949219 2.804688 0.121094 5.351562 0.121094 Z M 5.351562 -0.839844 C 3.328125 -0.839844 1.695312 -2.460938 1.695312 -4.5 C 1.695312 -6.539062 3.328125 -8.15625 5.351562 -8.15625 C 7.394531 -8.15625 9.011719 -6.539062 9.011719 -4.5 C 9.011719 -2.460938 7.394531 -0.839844 5.351562 -0.839844 Z M 5.351562 -0.839844 "/></g></g></g></svg>