<svg width="20" height="20" viewBox="0 0 20 20" fill="none" xmlns="http://www.w3.org/2000/svg">
<g clip-path="url(#clip0_197_1158)">
<path d="M11.8783 15.8557C12.0613 16.0388 12.0613 16.3356 11.8783 16.5186L10.1332 18.2637C7.81823 20.5786 4.05144 20.5788 1.73628 18.2637C-0.578721 15.9487 -0.578721 12.1818 1.73628 9.86684L3.4814 8.12173C3.66444 7.93868 3.96124 7.93868 4.14433 8.12173L5.69112 9.66852C5.87417 9.85157 5.87417 10.1484 5.69112 10.3315L3.94601 12.0765C2.84944 13.1731 2.84944 14.9574 3.94601 16.054C5.04257 17.1506 6.82687 17.1506 7.92351 16.054L9.66858 14.3089C9.85163 14.1259 10.1484 14.1259 10.3315 14.3089L11.8783 15.8557ZM9.66858 5.69102C9.85163 5.87407 10.1484 5.87407 10.3315 5.69102L12.0766 3.94594C13.1732 2.84926 14.9575 2.84934 16.0541 3.94594C17.1507 5.04255 17.1507 6.8268 16.0541 7.92341L14.309 9.66848C14.1259 9.85153 14.1259 10.1483 14.309 10.3314L15.8558 11.8782C16.0388 12.0613 16.3356 12.0613 16.5187 11.8782L18.2638 10.1331C20.5789 7.81805 20.5789 4.05126 18.2638 1.73622C15.9487 -0.578782 12.182 -0.578782 9.8669 1.73622L8.12183 3.4813C7.93878 3.66434 7.93878 3.96114 8.12183 4.14423L9.66858 5.69102ZM18.8416 19.7254L19.7254 18.8415C20.0916 18.4754 20.0916 17.8818 19.7254 17.5157L2.48433 0.274539C2.11819 -0.0915942 1.5246 -0.0915942 1.15851 0.274539L0.2746 1.15844C-0.0915332 1.52458 -0.0915332 2.11817 0.2746 2.48427L17.5157 19.7254C17.8819 20.0915 18.4755 20.0915 18.8416 19.7254Z" fill="#0386FF"/>
</g>
<defs>
<clipPath id="clip0_197_1158">
<rect width="20" height="20" fill="white"/>
</clipPath>
</defs>
</svg>
